<svg width="80" height="80" viewBox="0 0 80 80" fill="none" xmlns="http://www.w3.org/2000/svg">
<g clip-path="url(#clip0_1352_85064)">
<path d="M80 40.001C80 62.0913 62.0913 80 40.001 80C17.9108 80 0 62.0913 0 40.001C0 17.9108 17.9087 0 40.001 0C62.0934 0 80 17.9087 80 40.001Z" fill="#9E3039"/>
<path d="M54.5002 44.8291C51.814 44.8291 51.7764 42.0074 51.7764 41.0751V36.6516H58.0999V33.7006H51.7764V29.8673L48.5334 31.298V41.4255C48.5334 42.3014 48.4458 47.9992 54.3855 47.9992C57.3053 47.9992 59.2678 45.7572 59.2678 45.7572L57.3032 43.3609C57.3032 43.3609 55.9768 44.8291 54.5002 44.8291ZM44.2079 33.273C42.9566 32.4138 41.2485 32.0029 39.0837 32.0029C36.4716 32.0163 33.9199 32.7903 31.7405 34.2303L33.7509 36.6475C33.7509 36.6475 35.5925 35.1521 39.042 35.1521C40.4268 35.1521 41.3215 35.2981 41.9618 35.5692C42.6021 35.8404 42.8231 36.1678 42.8252 36.5661C42.8252 36.9978 42.6167 37.4003 41.4467 37.5776C40.0306 37.7153 38.7625 37.8675 37.3235 38.026C35.238 38.27 33.7364 38.6934 32.7916 39.3587C31.7488 40.0845 31.1899 41.2712 31.1982 42.7519C31.1982 44.4204 31.8698 45.776 33.1503 46.6707C34.4308 47.5654 36.2328 48.0033 38.5623 48.0033C41.2569 47.9908 43.8826 47.0502 44.8774 46.1138C45.8722 45.1774 46.1016 43.8885 46.1037 43.0898V37.0145C46.1037 36.9958 46.1037 36.9499 46.1037 36.8727C46.1213 36.1608 45.9563 35.4562 45.6245 34.8261C45.2926 34.1959 44.805 33.6613 44.2079 33.273ZM42.9086 42.1596C42.892 42.5767 42.9879 43.486 42.2559 44.0241C41.5927 44.5121 40.1703 44.8833 38.6124 44.8729C37.213 44.8729 36.1473 44.6644 35.4257 44.2723C34.7041 43.8802 34.4225 43.438 34.4183 42.8916C34.4183 42.3014 34.7395 41.6257 35.653 41.3066C36.4415 41.0897 37.2545 40.9741 38.0722 40.9625C40.3955 40.8645 41.4091 40.829 42.9086 40.4077V42.1596ZM73.8417 39.3316C72.9011 38.6663 71.4099 38.2429 69.3348 38.001C67.9041 37.8404 63.7288 37.7924 63.7288 36.5411C63.7288 36.1407 63.9373 35.8299 64.5901 35.5442C65.2429 35.2585 66.2586 35.1271 67.635 35.1271C71.0658 35.1271 73.02 36.6516 73.02 36.6516L75.0096 34.2303C72.801 32.7918 70.2288 32.0114 67.5933 31.98C65.4389 31.98 63.7392 32.3971 62.4983 33.2501C61.2574 34.1031 60.5275 35.2439 60.5275 36.5411C60.5188 37.113 60.6357 37.6798 60.87 38.2016C61.1042 38.7233 61.45 39.1874 61.8831 39.561C62.6839 40.2159 63.7059 40.6205 65.3826 40.902C65.7872 40.9708 66.8425 41.1001 68.6007 41.1961C69.4138 41.2158 70.2217 41.332 71.0074 41.5423C71.9146 41.8593 72.2295 42.2806 72.2337 42.8687C72.2337 43.4068 71.9584 43.8447 71.2326 44.2514C70.5069 44.6581 69.4516 44.8521 68.0626 44.8521C66.1426 44.8479 64.2582 44.3332 62.6026 43.3609L60.638 45.7572C60.638 45.7572 63.4034 48.0513 68.1022 47.9992C68.9014 47.9995 69.699 47.9297 70.486 47.7906C71.5599 47.6373 72.5855 47.2446 73.4871 46.6415C74.2839 46.0923 74.877 45.2954 75.1743 44.3745C75.3433 43.841 75.4277 43.2844 75.4246 42.7248C75.4267 41.242 74.8865 40.0574 73.8417 39.3316ZM28.1408 39.3316C27.2002 38.6663 25.7111 38.2429 23.6339 38.001C22.2032 37.8404 18.0279 37.7924 18.0279 36.5411C18.0279 36.1407 18.2365 35.8299 18.8892 35.5442C19.542 35.2585 20.5577 35.1271 21.9362 35.1271C25.367 35.1271 27.3191 36.6516 27.3191 36.6516L29.3108 34.2282C27.1014 32.7899 24.5286 32.0095 21.8925 31.9779C19.7381 31.9779 18.0404 32.395 16.7995 33.248C15.5586 34.101 14.8266 35.2418 14.8266 36.539C14.8184 37.1108 14.9355 37.6775 15.1697 38.1992C15.4039 38.7209 15.7495 39.185 16.1822 39.5589C16.9851 40.2138 18.0071 40.6184 19.6818 40.8999C20.0989 40.9687 21.1542 41.0981 22.8998 41.194C23.7136 41.2136 24.5222 41.3298 25.3086 41.5402C26.2158 41.8572 26.5287 42.2785 26.5349 42.8666C26.5349 43.4047 26.2596 43.8426 25.5318 44.2493C24.8039 44.656 23.7528 44.85 22.3617 44.85C20.4423 44.8461 18.5585 44.3314 16.9038 43.3588L14.9455 45.7572C14.9455 45.7572 17.7088 48.0513 22.4097 47.9992C23.2082 47.9995 24.0051 47.9297 24.7914 47.7906C25.8654 47.6381 26.8913 47.2453 27.7925 46.6415C28.5898 46.0924 29.1837 45.2955 29.4818 44.3745C29.6507 43.841 29.7352 43.2844 29.7321 42.7248C29.7258 41.242 29.1877 40.0574 28.1408 39.3316Z" fill="white"/>
</g>
<defs>
<clipPath id="clip0_1352_85064">
<rect width="80" height="80" fill="white"/>
</clipPath>
</defs>
</svg>
