<svg width="70" height="70" viewBox="0 0 70 70" fill="none" xmlns="http://www.w3.org/2000/svg">
<circle cx="35" cy="35" r="35" fill="white" fill-opacity="0.3"/>
<path d="M54.5261 27.9799C50.8398 20.4913 46.8902 19.9682 43.2129 21.753C42.111 22.2879 41.164 22.9731 40.4693 23.8662H30.5762C29.8823 22.9731 28.9352 22.2879 27.8333 21.753C24.156 19.9682 20.2065 20.4913 16.5203 27.9799C12.8309 35.4669 10.8038 47.0854 14.481 48.8701C16.7415 49.9663 20.6302 47.0851 24.1481 42.9672C25.157 44.8114 27.1253 46.0634 29.3881 46.0634C32.2922 46.0634 34.7097 44.0009 35.2384 41.2715H35.8064C36.335 44.0009 38.7526 46.0634 41.6567 46.0634C43.909 46.0634 45.8689 44.8227 46.882 42.9927C50.6309 47.2104 54.4767 49.8822 56.5625 48.8701C60.2425 47.0854 58.2122 35.4669 54.5261 27.9799ZM25.3194 34.8294C25.3194 34.8962 25.2985 34.9571 25.2812 35.0181C25.2108 35.2677 25.0163 35.4535 24.761 35.516C24.7062 35.5278 24.6538 35.5487 24.5947 35.5487H24.0684H22.2111C21.8106 35.5487 21.4864 35.2262 21.4864 34.8294V33.3773H20.0221C19.6217 33.3773 19.2976 33.0548 19.2976 32.6581V30.2922C19.2976 29.8954 19.6218 29.5728 20.0221 29.5728H21.4865V28.118C21.4865 27.7213 21.8107 27.3987 22.2112 27.3987H24.0685H24.5948C24.9953 27.3987 25.3194 27.7213 25.3194 28.118V29.5728H26.7838C27.1843 29.5728 27.5085 29.8954 27.5085 30.2922V32.6581C27.5085 33.0548 27.1843 33.3773 26.7838 33.3773H25.3194V34.8294ZM29.3881 43.7156C27.4036 43.7156 25.7947 42.1187 25.7947 40.1489C25.7947 38.1791 27.4036 36.5821 29.3881 36.5821C31.3727 36.5821 32.9816 38.179 32.9816 40.1489C32.9817 42.1187 31.3727 43.7156 29.3881 43.7156ZM41.6567 43.7156C39.672 43.7156 38.0631 42.1187 38.0631 40.1489C38.0631 38.1791 39.672 36.5821 41.6567 36.5821C43.6412 36.5821 45.2502 38.179 45.2502 40.1489C45.2501 42.1187 43.6412 43.7156 41.6567 43.7156ZM44.9947 32.8439C44.2335 32.8439 43.6173 32.23 43.6173 31.4737C43.6173 30.7202 44.2335 30.1063 44.9947 30.1063C45.7568 30.1063 46.373 30.7202 46.373 31.4737C46.373 32.2301 45.7567 32.8439 44.9947 32.8439ZM48.3388 35.5636C48.1822 35.6244 48.0146 35.6647 47.8365 35.6647C47.808 35.6647 47.7841 35.6498 47.7556 35.6482C47.1134 35.6096 46.6117 35.1386 46.5047 34.5218C46.492 34.4461 46.4589 34.3762 46.4589 34.296C46.4589 33.5411 47.0744 32.9273 47.8365 32.9273C48.0146 32.9273 48.1822 32.9674 48.3388 33.0284C48.8501 33.2275 49.214 33.7179 49.214 34.296C49.214 34.8739 48.8501 35.3628 48.3388 35.5636ZM48.3388 29.9222C48.1822 29.9832 48.0146 30.0232 47.8365 30.0232C47.0744 30.0232 46.4589 29.4094 46.4589 28.6545C46.4589 27.8995 47.0744 27.2858 47.8365 27.2858C48.0146 27.2858 48.1822 27.3259 48.3388 27.3869C48.8501 27.5861 49.214 28.0765 49.214 28.6545C49.214 29.2326 48.8501 29.7216 48.3388 29.9222ZM50.6782 32.8439C49.916 32.8439 49.3007 32.23 49.3007 31.4737C49.3007 30.7202 49.9161 30.1063 50.6782 30.1063C51.4402 30.1063 52.0556 30.7202 52.0556 31.4737C52.0556 32.2301 51.4403 32.8439 50.6782 32.8439Z" fill="white"/>
<circle cx="35" cy="35" r="34" stroke="white" stroke-width="2"/>
</svg>
