<svg width="70" height="70" viewBox="0 0 70 70" fill="none" xmlns="http://www.w3.org/2000/svg">
<g opacity="0.95">
<circle cx="35" cy="35" r="35" fill="white" fill-opacity="0.3"/>
<path d="M52.0117 23.2621H41.1589L38.9674 19.5805C38.753 19.2205 38.3652 19 37.9462 19H31.0536C30.6347 19 30.2467 19.2205 30.0325 19.5805L27.841 23.2621H24.2797V22.4507C24.2797 21.7944 23.7476 21.2624 23.0913 21.2624H18.6943C18.0379 21.2624 17.5059 21.7944 17.5059 22.4507V23.2621H16.9883C15.3378 23.2621 14 24.6 14 26.2503V47.886C14 49.5364 15.3378 50.8743 16.9881 50.8743H52.0117C53.6621 50.8743 55 49.5364 55 47.886V26.2503C55.0001 24.6 53.6621 23.2621 52.0117 23.2621ZM34.4999 45.5739C29.8023 45.5739 25.9942 41.7658 25.9942 37.068C25.9942 32.3705 29.8023 28.5623 34.4999 28.5623C39.1975 28.5623 43.0057 32.3705 43.0057 37.068C43.0057 41.7658 39.1975 45.5739 34.4999 45.5739ZM50.1474 29.4228H46.4237C45.7674 29.4228 45.2353 28.8907 45.2353 28.2343C45.2353 27.5779 45.7674 27.0459 46.4237 27.0459H50.1474C50.8039 27.0459 51.3358 27.5779 51.3358 28.2343C51.3358 28.8907 50.8038 29.4228 50.1474 29.4228Z" fill="white"/>
<path d="M34.4999 43.0102C37.7817 43.0102 40.4421 40.3499 40.4421 37.0681C40.4421 33.7864 37.7817 31.126 34.4999 31.126C31.2182 31.126 28.5578 33.7864 28.5578 37.0681C28.5578 40.3499 31.2182 43.0102 34.4999 43.0102Z" fill="white"/>
<circle cx="35" cy="35" r="34" stroke="white" stroke-width="2"/>
</g>
</svg>
