<svg width="37" height="37" viewBox="0 0 37 37" fill="none" xmlns="http://www.w3.org/2000/svg">
<circle cx="18.5" cy="18.5" r="18.5" transform="rotate(-90 18.5 18.5)" fill="#C0BE9A" fill-opacity="0.74"/>
<path d="M22.6646 26.2062C22.4305 26.2062 22.1963 26.1189 22.0177 25.9403L14.4173 18.34C14.2467 18.1693 14.1475 17.9351 14.1475 17.693C14.1475 17.4509 14.2427 17.2168 14.4134 17.0461L22.0217 9.43782C22.3789 9.08062 22.9583 9.08062 23.3155 9.43782C23.6727 9.79502 23.6727 10.3745 23.3155 10.7317L16.3541 17.693L23.3076 24.6465C23.6648 25.0037 23.6648 25.5831 23.3076 25.9403C23.129 26.1189 22.8948 26.2062 22.6607 26.2062H22.6646Z" fill="white"/>
</svg>
