<svg width="37" height="37" viewBox="0 0 37 37" fill="none" xmlns="http://www.w3.org/2000/svg">
<circle cx="18.5" cy="18.5" r="18.5" transform="rotate(90 18.5 18.5)" fill="#C0BE9A" fill-opacity="0.74"/>
<path d="M14.3354 10.7938C14.5695 10.7938 14.8037 10.8811 14.9823 11.0597L22.5827 18.66C22.7533 18.8307 22.8525 19.0649 22.8525 19.307C22.8525 19.5491 22.7573 19.7832 22.5866 19.9539L14.9783 27.5622C14.6211 27.9194 14.0417 27.9194 13.6845 27.5622C13.3273 27.205 13.3273 26.6255 13.6845 26.2683L20.6459 19.307L13.6924 12.3535C13.3352 11.9963 13.3352 11.4169 13.6924 11.0597C13.871 10.8811 14.1052 10.7937 14.3393 10.7938L14.3354 10.7938Z" fill="white"/>
</svg>
